<svg width="250" height="28" viewBox="0 0 250 28" fill="none" xmlns="http://www.w3.org/2000/svg">
<g clip-path="url(#clip0_1_6863)">
<path fill-rule="evenodd" clip-rule="evenodd" d="M76.1089 20.3027C74.4671 21.7309 72.3311 22.6375 69.8646 22.6375C67.0828 22.6375 64.4872 21.4179 62.5945 19.3936C60.6994 17.3718 59.5022 14.5402 59.5022 11.3187C59.5022 8.09722 60.6994 5.26816 62.5945 3.24386C64.4872 1.21955 67.0803 0 69.8646 0C72.2715 0 74.3752 0.89914 75.9972 2.3323C77.6191 3.76297 78.7641 5.7227 79.2659 7.85629L79.3205 8.09226H76.0419L75.9997 7.95813C75.5923 6.64668 74.8621 5.42216 73.8338 4.52799C72.8055 3.63382 71.4841 3.06751 69.8646 3.06751C67.9794 3.06751 66.1985 3.90455 64.8821 5.3551C63.5682 6.80564 62.7212 8.86969 62.7212 11.3212C62.7212 13.7727 63.5682 15.8368 64.8821 17.2873C66.1985 18.7379 67.9794 19.5749 69.8646 19.5749C71.5313 19.5724 72.885 19.0061 73.9356 18.1169C74.9863 17.2277 75.7314 16.0106 76.1537 14.7141L76.1959 14.5825H79.477L79.4199 14.8184C78.9032 16.9197 77.7507 18.872 76.1089 20.3027ZM98.0385 23.3801C97.502 24.7313 96.973 25.7149 96.4191 26.4228V26.4253C95.8677 27.1332 95.284 27.5653 94.658 27.7914C94.2432 27.9429 93.8086 28.0025 93.3615 28.0025C92.7132 28.0025 92.2214 27.8386 91.8513 27.7144L91.7197 27.6721V24.8555L91.9755 24.9499C92.2984 25.0666 92.5791 25.1237 92.9268 25.1237C93.4211 25.1213 93.8235 25.0095 94.1836 24.7288C94.5438 24.4457 94.8667 23.9787 95.1523 23.241L95.741 21.7408L90.7585 9.44842H88.7292C87.5866 9.44842 86.6279 9.84583 85.9448 10.5711C85.2618 11.2964 84.852 12.3594 84.852 13.7231V22.3021H81.8192V6.41569H84.1267L84.7129 8.35803H84.7253V8.5617C85.0333 8.15932 85.5002 7.68243 86.1013 7.27757C86.8142 6.79571 87.7133 6.41569 88.7317 6.41569H92.8126L97.2735 17.9083L101.595 6.53739L101.643 6.4132H104.799L98.0385 23.3801ZM109.611 14.339C109.611 12.7146 110.135 11.3684 110.957 10.427C111.779 9.48568 112.897 8.95166 114.104 8.95166C115.294 8.95166 116.404 9.48568 117.223 10.427C118.043 11.3684 118.567 12.7171 118.567 14.339C118.567 15.961 118.041 17.3345 117.223 18.2784C116.404 19.2222 115.294 19.7562 114.104 19.7587C112.897 19.7587 111.781 19.2247 110.957 18.2784C110.135 17.3345 109.611 15.9784 109.608 14.339H109.611ZM109.608 20.5759C109.717 20.6976 109.849 20.8317 110.01 20.9758C110.425 21.3434 111.006 21.7557 111.724 22.0811C112.442 22.404 113.299 22.6375 114.255 22.6375C116.252 22.6375 118.093 21.7731 119.429 20.3027C120.765 18.8323 121.597 16.7583 121.597 14.3415C121.597 11.9248 120.765 9.85825 119.429 8.39529C118.093 6.93232 116.252 6.07541 114.255 6.07541C112.949 6.07541 111.836 6.50511 110.994 7.0118C110.572 7.26515 110.217 7.53837 109.936 7.78675C109.73 7.97055 109.566 8.13945 109.444 8.28351L108.88 6.41321H106.573V27.8485H109.606V20.5784L109.608 20.5759ZM126.096 21.2242C125.241 20.3002 124.735 18.954 124.735 17.2675H124.737V9.22984H122.087V6.5051H123.45C123.875 6.5051 124.215 6.41817 124.474 6.26417C124.732 6.10769 124.913 5.88663 125.025 5.57864C125.1 5.37248 125.139 5.12907 125.139 4.84591V2.34223H127.772V6.4132H131.287V9.22984H127.772V17.1756C127.772 17.8685 127.906 18.4026 128.135 18.7975C128.363 19.1924 128.684 19.4532 129.091 19.6072C129.362 19.7066 129.672 19.7587 130.015 19.7587C130.395 19.7587 130.701 19.7016 131.014 19.56L131.284 19.4358V22.3046L131.153 22.3493C130.778 22.476 130.254 22.6374 129.489 22.6374C128.147 22.6399 126.95 22.1481 126.096 21.2242ZM143.276 18.2759C142.434 19.2197 141.287 19.7562 140.032 19.7562C138.778 19.7562 137.62 19.2197 136.774 18.2759C135.924 17.332 135.385 15.9759 135.385 14.339C135.385 12.7171 135.924 11.3709 136.774 10.4295C137.623 9.48815 138.778 8.95165 140.032 8.95165C141.287 8.95165 142.434 9.48815 143.276 10.4295C144.116 11.3709 144.65 12.7171 144.65 14.339C144.65 15.9783 144.118 17.332 143.276 18.2759ZM145.442 8.44743C144.046 6.96708 142.121 6.07043 140.032 6.07291C137.929 6.07291 136.004 6.96708 134.61 8.44992C133.217 9.93027 132.35 11.9968 132.35 14.3415C132.35 16.6862 133.214 18.7751 134.61 20.2604C136.004 21.7458 137.926 22.6399 140.032 22.6399C142.121 22.6399 144.046 21.7458 145.442 20.2604C146.84 18.7751 147.712 16.7011 147.712 14.3415C147.712 11.9819 146.838 9.93027 145.44 8.44992L145.442 8.44743ZM161.912 4.90801L158.519 14.118H165.305L161.912 4.90801ZM152.205 22.2997L160.486 0.340281H163.462L171.746 22.2997H168.315L166.435 17.1209H157.394L155.514 22.2997H152.205ZM183.238 15.5412C183.238 16.8601 182.836 17.9083 182.158 18.6311C181.48 19.3539 180.518 19.7562 179.361 19.7562C178.268 19.7562 177.329 19.3539 176.659 18.6311C175.988 17.9083 175.578 16.8576 175.578 15.5412V6.41072H172.545V15.6331C172.545 17.7369 173.214 19.4905 174.354 20.7175C175.491 21.9445 177.096 22.6375 178.931 22.635C180.111 22.635 181.117 22.2748 181.899 21.8029C182.59 21.3856 183.107 20.8839 183.434 20.4442L183.963 22.2947H186.303V6.41072H183.238V15.5412ZM191.529 2.34223H194.162V6.4132H197.677V9.22984H194.162V17.1756C194.162 17.8685 194.296 18.4026 194.525 18.7975C194.753 19.1899 195.074 19.4507 195.481 19.6047C195.752 19.7041 196.062 19.7562 196.405 19.7562C196.785 19.7562 197.09 19.6991 197.403 19.5575L197.674 19.4333V22.3046L197.542 22.3493C197.167 22.476 196.643 22.6374 195.878 22.6374C194.537 22.6399 193.34 22.1481 192.485 21.2242C191.631 20.3002 191.124 18.954 191.124 17.2675V9.22984H188.474V6.5051H189.838C190.265 6.5051 190.605 6.41817 190.863 6.26417C191.122 6.10769 191.303 5.88663 191.415 5.57864C191.489 5.37248 191.529 5.12907 191.529 4.84591V2.34223ZM209.671 18.2759C208.829 19.2197 207.681 19.7562 206.427 19.7562C205.173 19.7562 204.018 19.2197 203.168 18.2759C202.319 17.332 201.78 15.9759 201.78 14.339C201.78 12.7171 202.319 11.3709 203.168 10.4295C204.018 9.48816 205.173 8.95165 206.427 8.95165C207.681 8.95165 208.829 9.48816 209.671 10.4295C210.51 11.3709 211.044 12.7171 211.044 14.339C211.044 15.9784 210.513 17.332 209.671 18.2759ZM206.427 6.07043C204.323 6.07043 202.398 6.96461 201.005 8.44744C199.611 9.92779 198.745 11.9943 198.745 14.339C198.745 16.6987 199.611 18.7726 201.005 20.258C202.398 21.7433 204.323 22.6375 206.427 22.6375C208.516 22.6375 210.441 21.7433 211.837 20.258C213.235 18.7726 214.107 16.6987 214.107 14.339C214.107 11.9943 213.233 9.92779 211.837 8.44744C210.441 6.96709 208.516 6.07043 206.427 6.07292V6.07043ZM222.216 12.9777C223.126 13.2722 224.1 13.5872 224.956 14.0484L224.959 14.0509C225.813 14.5129 226.558 15.1289 226.986 16.0305C227.231 16.5447 227.368 17.1482 227.368 17.8536C227.371 19.1974 226.844 20.4045 225.858 21.2639C224.872 22.1258 223.436 22.6375 221.628 22.6375C219.845 22.6375 218.357 22.0438 217.291 21.1025C216.226 20.1611 215.587 18.872 215.49 17.496L215.476 17.2923H218.503L218.521 17.4637C218.595 18.1914 218.903 18.7925 219.42 19.2222C219.936 19.6519 220.677 19.9102 221.628 19.9102C222.554 19.9102 223.233 19.6792 223.675 19.324C224.117 18.9689 224.335 18.492 224.335 17.943C224.335 17.6847 224.283 17.4662 224.191 17.2699C224.099 17.0762 223.963 16.9023 223.789 16.7409C223.441 16.4205 222.927 16.1622 222.326 15.9312C221.901 15.7669 221.433 15.6167 220.95 15.4613C220.066 15.1772 219.128 14.876 218.3 14.4409C217.445 13.9913 216.698 13.3902 216.27 12.501C216.024 11.9943 215.888 11.3982 215.888 10.7003C215.888 9.42855 216.422 8.26364 217.383 7.42411C218.344 6.58458 219.725 6.07043 221.412 6.07043C223.074 6.07043 224.469 6.62681 225.47 7.53091C226.471 8.43502 227.072 9.68686 227.152 11.0604L227.164 11.2616H224.171L224.152 11.0927C224.062 10.355 223.794 9.79118 223.352 9.40371C222.91 9.01623 222.274 8.79517 221.412 8.79517C220.565 8.79517 219.939 9.01127 219.532 9.33913C219.124 9.66948 218.921 10.1066 218.921 10.6084C218.921 10.8518 218.97 11.0579 219.062 11.2442C219.152 11.4305 219.286 11.5969 219.462 11.7509C219.812 12.0589 220.326 12.3123 220.928 12.5383C221.327 12.69 221.763 12.8313 222.216 12.9777ZM38.7723 16.7334H17.1557V22.6896H44.7285V7.74203C44.7285 0.859393 36.4052 -2.58814 31.5394 2.27765L22.2624 11.5547L26.4749 15.7672L35.7321 6.51006C36.8548 5.38738 38.7723 6.1822 38.7723 7.76935V16.7334ZM27.5728 6.00833H5.95618V14.9749C5.95618 16.562 7.87368 17.3569 8.99636 16.2342L17.9306 7.29991L22.1432 11.5125L13.189 20.4666C8.32325 25.3324 0 21.8848 0 15.0022V0.0546365H27.5728V6.00833Z" fill="white"/>
</g>
<defs>
<clipPath id="clip0_1_6863">
<rect width="250" height="28" fill="white"/>
</clipPath>
</defs>
</svg>
